<svg xmlns="http://www.w3.org/2000/svg" width="406" height="511" viewBox="0 0 406 511">
  <defs>
    <style>
      .cls-1 {
        fill: #102539;
        fill-rule: evenodd;
      }
    </style>
  </defs>
  <path id="Color_Fill_1" data-name="Color Fill 1" class="cls-1" d="M36,0H281L406,131V472c-2.791,3.52-3.454,8.176-6,12-6.386,9.591-20.24,23.273-32,27H130c-30.178,0-87.233,5.636-105-7-9.142-6.5-21.351-19.475-25-31V37C3.682,25.47,15.837,12.509,25,6,28.466,3.538,32.977,2.832,36,0ZM376,161c-59.328.458-105.343,6.93-123-36-5.369-13.053-3-35.5-3-53V29H101c-24.942,0-50.124-1.893-61,12-14.84,18.958-10,62.646-10,96V371c0,32.651-6.813,85.275,12,100,20.932,16.383,93.744,10,132,10H301c22.136,0,45.913,1.9,59-7,20.369-13.848,16-51.89,16-86V161ZM285,57c-0.269,19.406-3.264,48.268,5,60,8.911,12.651,39.532,9.3,61,9v-1c-7.749-5.16-14.391-13.576-20-21L320,94c-8.163-8.164-15.853-16.822-24-25C292.144,65.13,289.648,60.1,285,57ZM198,164l13,1c2.636,3.4,7.531,5.492,9,10V303h1c7.138-12.318,20.622-19.949,29-31,4.263-5.623,10.419-15.131,17-18,5.959-2.6,14.041-.165,19,1l6,7c0.554,5.5,2.048,11.888-1,16-2.475,7.729-9.684,10.3-14,16-12.137,16.026-29.046,28.215-41,44-4.781,6.313-18.272,24.124-25,27H195c-8.4-10.97-21.662-18.973-30-30-7.742-10.239-18.612-18.229-26-28a223.015,223.015,0,0,0-25-28c-1.144-10.884-1.319-20.914,8-24,4.91-3.761,15.8-1.962,20,1,4.058,2.865,6.959,7.973,10,12l13,12c5.577,7.4,12.33,16.811,20,22V178c1.076-1.5.891-4.286,2-6C189.464,168.191,194.469,166.837,198,164ZM95,396H311c5.357,1.761,7.468,7.349,11,11a59.021,59.021,0,0,1-2,17c-3.86,2.588-4.863,5.364-11,6-4.642,2.887-46.53,1-56,1H149c-18.942,0-42.28,1.573-58-2-5.6-8.247-7.216-7.837-7-23h1C86.881,399.925,90.728,399.476,95,396Z"/>
</svg>
