<svg xmlns="http://www.w3.org/2000/svg" width="512" height="512" viewBox="0 0 512 512">
  <defs>
    <style>
      .cls-1 {
        fill: #fff;
        fill-rule: evenodd;
      }
    </style>
  </defs>
  <path id="Ellipse_1_copy" data-name="Ellipse 1 copy" class="cls-1" d="M400.25,338.361a216.183,216.183,0,0,0,36.2-120.111c0-119.959-97.245-217.2-217.2-217.2S2.046,98.291,2.046,218.25s97.246,217.2,217.2,217.2a216.2,216.2,0,0,0,121.243-36.961L444,503s16.667,23.25,50-6c0,0,26-21.417,12-51ZM214.5,81A131.5,131.5,0,1,1,83,212.5,131.5,131.5,0,0,1,214.5,81Z"/>
</svg>
