<svg xmlns="http://www.w3.org/2000/svg" width="200.085" height="200.085" viewBox="0 0 1983 1983">
  <defs>
    <style>
      .cls-1 {
        fill: #102539;
        fill-rule: evenodd;
      }
    </style>
  </defs>
  <path id="Color_Fill_2" data-name="Color Fill 2" class="cls-1" d="M1380,0h143c12.85,3.068,28.77,3.113,42,7,20.49,6.02,43.58,11.989,62,19,10.3,3.918,20.29,4.213,30,9,30.37,14.978,60.97,29.531,89,47,9.48,5.907,17.94,14.609,27,21,81.57,57.533,139.3,136.3,180,235,12.74,30.9,21.71,65.856,30,102V629c-3.67,15.771-7.83,32.268-12,47-2.1,7.428-1.37,13-4,20-18.67,49.737-38.6,96.891-66,138-27.86,41.793-64.09,77.09-99,112q-57.51,57.5-115,115l-117,117c-33.65,33.66-50.93,61.43-107,74-22.39,5.02-44.16-5.06-57-11-24.39-11.29-43.17-29.44-54-54-2.56-5.81-1.79-10.39-4-17-3.25-9.73-6.74-32.55-3-46,3.66-13.16,8.92-28.41,16-39,8.26-12.35,20.6-22.61,31-33l57-57,167-168c39.74-39.743,81.84-76.633,113-125,15.33-23.792,25.67-52.761,35-82,3.67-11.5,2.76-21.443,6-34,5.41-20.952,8.19-56.4,3-80-2.96-13.488-.45-25.322-4-38a508.937,508.937,0,0,0-31-83c-17.51-36.563-51.09-78.912-82-102a448.986,448.986,0,0,0-67-42c-12.06-6.059-25.97-9.39-38-15-7.68-3.58-15.2-2.663-24-5-57.02-15.147-136.37-10.945-186,9a413.749,413.749,0,0,0-94,53c-5.83,4.34-10.23,11.629-16,16-23.65,17.9-43.13,42.124-64,63q-71.49,70.994-143,142-41,41-82,82c-17.464,17.466-33.872,37.332-58,48-39.8,17.6-84.9,3.584-111-16-10.86-8.149-17.909-19.858-25-32a124.759,124.759,0,0,1-11-24c-6.631-20.7-2.557-50.915,4-68,7.977-20.785,24.5-35.507,39-50q29.5-29.5,59-59,91-90.995,182-182c42.38-42.375,83.98-88.569,136-121q62.235-38.8,138-64l58-14C1361.66,1.8,1373.53,4.421,1380,0Zm-87,579c58.9-.693,90.45,30.719,107,73,7.15,18.257,9.46,47.392,2,68-3.05,8.428-7.11,18.526-12,26-14.25,21.773-41.39,43.39-60,62q-59.01,59-118,118-183.975,184.485-368,369-31.5,30.99-63,62c-14.549,14.55-29.421,31.78-50,40-24.255,9.69-59.748,9.73-84,0-11.023-4.42-21.841-13.12-31-20-28.339-21.3-44.589-78.28-27-122,8.648-21.5,26.779-36.78,42-52q33.5-33.99,67-68,181.982-181.485,364-363l117-117c18.82-18.815,38.75-44.436,61-59,10.47-6.855,24.3-10.867,37-15C1281.67,579.48,1289.15,581.4,1293,579ZM525,732c14.328-.22,28.767-0.85,40,3,47.148,16.159,95.3,65.875,75,135-2.845,9.688-7.6,20.925-13,29-8.528,12.743-21.272,23.274-32,34q-28.5,28.5-57,57-81.991,82.485-164,165c-44,44-88.52,84.15-122,139-38.512,63.09-52.216,182.11-21,264,17.548,46.03,40.11,75.43,67,111,5.336,7.06,13.871,13.62,21,19,12.507,9.44,23.69,22.12,37,31,32.709,21.82,71.822,36.88,115,48q7,0.495,14,1c54.863,13.55,129.438-.39,171-17,68.7-27.45,113.03-77.02,161-125q86.491-85.995,173-172l62-62c15.53-15.53,30.52-32.5,52-42,23.08-10.21,61.93-10.26,85,0,12.4,5.51,24.13,14.59,34,23,25.3,21.55,40.08,75.04,24,117-7.97,20.78-24.51,35.51-39,50q-30.51,30.495-61,61Q1057.99,1690,969,1779c-56.281,56.27-111.414,112.96-186,151-29.455,15.02-66.6,29.26-100,39-23.157,6.76-45.693,8.41-70,14H460c-20.753-4.83-41.581-7.41-60-13-8.851-2.69-15.712-1.88-24-5-29.12-10.95-59.009-21.22-86-35-79.49-40.58-154.885-108.89-203-181-14.274-21.39-23.95-43.1-36-67-4.565-9.05-11.317-19.4-15-29-7.179-18.71-13.324-37.29-19-56-0.333-3.33-.667-6.67-1-10C2.676,1542.82.014,1500.14,0,1441c-0.006-27.41.06-54.75,5-76,2.726-11.73.835-20.24,4-31,2.246-7.63,5.763-18.13,8-26,2.11-7.42,1.37-13.01,4-20,18.707-49.74,38.586-96.88,66-138,5.053-7.58,12.725-14.53,18-22,22.771-32.26,49.57-58.57,77-86q43-42.99,86-86,68.5-68.5,137-137c19.249-19.247,37.144-41.527,59-58,3.536-2.665,6.363-7.4,10-10,9.2-6.589,22.55-12.472,34-16C513.542,733.293,520.568,734.83,525,732Z"/>
</svg>
