<svg xmlns="http://www.w3.org/2000/svg" width="512" height="320" viewBox="0 0 512 320">
  <defs>
    <style>
      .cls-1 {
        fill: #102539;
        fill-rule: evenodd;
      }
    </style>
  </defs>
  <path id="Color_Fill_1" data-name="Color Fill 1" class="cls-1" d="M40,0c34,0.02,51.2,26.409,66,46,5.214,6.9,13.778,12.087,19,19,20.707,27.417,47.293,49.589,68,77,5.223,6.914,13.783,12.1,19,19,8.736,11.556,20.45,20.692,29,32,4.082,5.4,9.294,14.564,16,17,6.43-10.019,17-16.743,24-26,20.458-27.036,46.561-48.95,67-76,5.5-7.28,14.494-12.724,20-20,11.805-15.6,26.211-28.4,38-44l10-9c6.506-8.6,14.3-19.74,23-26,17.724-12.754,49.678-10.334,62,6,2.792,3.7,6.222,8.735,8,13,13.68,32.815-15.305,53.2-28,70-8.187,10.833-20.8,19.174-29,30-29.111,38.453-66.92,69.516-96,108-5.5,7.28-14.5,12.723-20,20-12.907,17.063-44.707,57.058-66,63-33.974,9.48-52.65-14.648-65-31-8.549-11.318-20.255-20.422-29-32-8.189-10.842-20.8-19.147-29-30-29.069-38.488-66.922-69.506-96-108C39.757,103.117,24.387,91.193,13,76,9.923,71.894,5.153,68.161,3,63-6.39,40.5,6.384,16.064,20,7,25.667,3.228,34,3.847,40,0Z"/>
</svg>
