<svg xmlns="http://www.w3.org/2000/svg" width="374" height="330" viewBox="0 0 374 330">
  <defs>
    <style>
      .cls-1 {
        fill: #102539;
        fill-rule: evenodd;
      }
    </style>
  </defs>
  <path id="Color_Fill_1" data-name="Color Fill 1" class="cls-1" d="M268,47c29.949-.3,97.34-6.4,106,13V169h-2c-1.895,1.521-3.59,1.789-7,2V284c0,20.3.687,39.868-13,46H21c-3.7-5.549-9.682-8.95-12-16-3.845-11.695-1-31.322-1-45V171c-11.864-1.5-8-14.706-8-27V60H1C7.933,40.4,76.421,46.748,105,47c-0.247-21.293.972-40.749,15-47H252V1C267.239,6.251,268.329,25.763,268,47ZM129,47H244a75.324,75.324,0,0,0-3-23c-8.065-4.683-21.561-4-35-4-23.242,0-49.453-1.555-71,1a50.632,50.632,0,0,1-6,8V47Zm87,136c10.128-1,20.843-5.195,30-8,22.479-6.885,45.524-10.452,67-17,10.959-3.341,31.891-4.079,40-10,2.41-3.845,1-14.283,1-20V77c-0.8-1.021-.355-0.274-1-2-15.343-8.837-65.35-4-89-4H105c-26.538,0-59.942-3.2-83,2-6.9,14.812-3.083,54.119-3,75h2c9.76,6.486,30.5,7.194,43,11,30.055,9.152,61.888,16.969,93,24,0.11-11.831,6.981-13.372,13-19,12.666-.152,27.272-0.264,37,2C210.79,171.631,215.284,173.788,216,183Zm125-5L216,209c0.611,17.824-1.8,29.384-15,33H189c-14.879.012-26.337-.1-30-11-3.193-4.08-2.156-14.848-2-22h-2c-8.953-5.955-24.106-5.688-35-9L32,177V302a11.725,11.725,0,0,1,2,5c11.585,6.511,62.855,3,82,3H263c23.6,0,52.317,3.154,74-1a24.935,24.935,0,0,1,4-5V178ZM181,188v30h11V188H181Z"/>
</svg>
