<svg xmlns="http://www.w3.org/2000/svg" width="512" height="466" viewBox="0 0 512 466">
  <defs>
    <style>
      .cls-1 {
        fill: #102539;
        fill-rule: evenodd;
      }
    </style>
  </defs>
  <path id="Color_Fill_1" data-name="Color Fill 1" class="cls-1" d="M84,0c30.247-.734,74.528,14.882,74,43-2.181,2.687-2.927,6.2-5,9L124,80,63,142c-5.3,5.305-11.826,9.584-17,15-5.2.5-10.149,1.864-14-1-8.884-2.9-13.4-12.6-18-20C-11.795,94.5,2.41,41.985,35,18A101.324,101.324,0,0,1,62,4C68.368,1.944,78.38,3.442,84,0ZM417,0c47.932-.631,75.918,24.453,89,59,6.823,18.019,7.827,45.519,0,64-6.072,14.339-15.87,23.826-26,34-5.2.5-10.149,1.864-14-1-11.251-3.854-20.086-18.086-28-26L376,68c-9.449-9.449-21.968-15.057-22-34,1.479-1.721,1.613-4.065,3-6,7.056-9.845,23.114-18.225,35-23C398.961,2.2,410.561,4.081,417,0ZM80,36c-6.859,4.388-15.665,4.575-22,9C40,57.575,28.852,87.54,41,113h1v-1c13.2-8.71,23.866-23.866,35-35,11.453-11.453,27.024-22.434,36-36l-3-1C103.814,35.117,91.017,35.873,80,36Zm333,0c-3.546,2.447-10.1,3.385-14,5v1h1l70,71h1v-1c7.188-7.527,6.479-26.92,3-37C464.929,48.714,449.133,35.4,413,36ZM243,54c106.561-1.525,166.654,54.1,197,129,16.657,41.111,12.317,105.462-4,143-6.17,14.194-15.5,27.2-24,39-5.91,8.2-11.655,18.4-20,24v1h1c6.438,9.881,17.026,16.781,24,26,6.444,8.517,13.363,17.619,21,25,0.5,5.2,1.864,10.149-1,14-1.733,5.578-5.464,6.469-9,10-4.856.3-8.224,1.8-13,0-5.639-2.128-28.708-27.325-33-33-3.608-4.771-13.679-20.322-19-19-5.221,1.691-8.821,5.459-13,8-10.152,6.172-23.806,10.97-35,15-49.684,17.886-138.859,3.782-166-24-5.247,1.962-6.9,5.9-10,10-8.2,10.854-22.17,24.127-32,34-4.635,4.655-13.6,14.583-23,8-5.578-1.733-6.469-5.464-10-9-0.5-5.2-1.864-10.149,1-14,2.1-6.515,7.434-8.287,11-13,10.39-13.731,24.5-24.823,34-39-8.331-5.71-14.067-15.742-20-24C72.239,326.362,46.729,260.8,68,195c14.743-45.6,41.445-82.184,77-107,16.4-11.444,37.126-20.7,58-27l30-6C236.627,54.179,240.6,55.5,243,54Zm11,35c-3.753,2.249-10.811-.163-16,1-11.613,2.6-24.4,3.688-35,8-44.095,17.935-78.106,48.057-96,92-4.177,10.257-6.308,21.878-9,33-5.475,22.615-.784,52.172,5,70,15.326,47.244,41.607,81.121,85,100,10.119,4.4,22.022,9.844,34,13l21,2c5.808,1.256,18.634,2.614,26,1,12.126-2.657,24.838-2.954,36-7,45.254-16.4,80.756-47.712,99-91,4.574-10.853,7.187-23.05,10-35,7.306-31.041-1.917-66.481-11-88C378.4,129.718,331.913,94.308,254,89Zm9,154c28.45-.617,65.284-7.555,65,22-1.834,2.3-2.179,5.61-4,8l-7,5c-20.8,1.756-81.576,6.439-87-9-3.77-4.94-2-18.75-2-27,0-24.651-2.913-55.79,2-77a59.792,59.792,0,0,0,9-7c8.718-.688,16.793-0.256,21,6,3.786,5.631,3,15.615,3,25v54Z"/>
</svg>
