<svg xmlns="http://www.w3.org/2000/svg" xmlns:xlink="http://www.w3.org/1999/xlink" width="484" height="484" viewBox="0 0 484 484">
  <defs>
    <style>
      .cls-1 {
        fill: #102539;
        fill-rule: evenodd;
      }
    </style>
  </defs>

  <path id="Color_Fill_1" data-name="Color Fill 1" class="cls-1" d="M197,0h90c79.543,18.2,132.177,58.453,169,119,11.922,19.6,19.322,43.688,26,68,3.147,11.456,2,26.858,2,41,0,29.257.486,59.654-6,81-28.214,92.849-89.019,148.938-185,174-10.4,2.716-25,1-37,1-28.476,0-59.2,1.59-81-5C81.62,450.773,22.89,386.058,0,287V240c0-26.037-.249-49.709,6-69C27.275,105.325,66.913,59.835,121,27c14.584-8.853,32.99-15.489,50-21C178.905,3.439,190.426,4.4,197,0Zm34,16c-6.5,4.675-15.576,5.524-22,10-21.259,14.812-46.228,51.249-53,80l44,7c10.7,2.353,22.954-.021,33,2V16h-2Zm20,0v99h2c4.459-2.611,13,.326,19-1,11.327-2.506,25.334-2.419,36-5,6.849-1.657,16.875.263,20-5q-7.5-16.5-15-33C299.057,48.043,281.372,22.261,251,16Zm-73,8c-4.112,3.067-9.8,2.816-15,5-10.26,4.312-22.363,9.122-32,15-12.431,7.582-24.444,16.322-36,25-4.661,3.5-7.841,8.648-13,12v1c18.318,4.455,34.091,15.961,55,19,4.15-19.739,30.165-66.836,44-76V24h-3Zm125,0c3.483,5.642,9.23,9.784,13,15a228.248,228.248,0,0,1,23,40c2.9,6.6,3.985,20.716,12,22,2.77-2,6.26-1.632,10-3,10.768-3.938,33.65-9.864,41-17-8.564-5.421-14.885-14.151-23-20C360.366,47.568,329.357,27.906,303,24ZM15,233H115c-0.689-36.54,5.174-86.649,16-113h-2c-5.655-3.868-13.931-3.618-21-6a218.372,218.372,0,0,1-26-11c-2.99-1.5-12.986-5.847-14-5-8.686,6.111-13.285,17.811-19,27C31.5,153.136,15.7,188.767,15,233Zm354,0H469c0.713-42.095-18.332-85.583-35-112-5.27-8.351-12.637-15.746-18-24-19.55,8.742-39.793,17.665-63,23v1c5.12,7.407,4.4,19.226,7,29C366.473,174.325,368.74,203.065,369,233Zm-236,0H233V133c-30.041.44-58.808-3.595-84-9-0.733,10.932-5.334,21.972-8,32C134.835,179.185,133.41,205.969,133,233ZM251,133V233H351c0.758-30.455-3.71-61.8-11-86-2.051-6.809-1.557-19.67-7-23-6.088,3.99-15.838,2.1-24,4C292.094,131.935,271,132.916,251,133ZM15,251c-0.713,42.1,18.332,85.583,35,112,5.27,8.351,12.637,15.746,18,24,19.528-8.732,39.812-17.67,63-23v-1c-5.253-7.039-4.459-19.447-7-29-6.47-24.323-8.75-53.019-9-83H15Zm118,0c-0.757,30.441,3.733,61.877,11,86,2.051,6.809,1.557,19.67,7,23,6.081-3.985,15.839-2.119,24-4,17-3.918,37.935-4.916,58-5V251H133Zm118,0V351c30.061-.44,58.833,3.6,84,9,0.725-10.817,5.284-22.151,8-32,6.109-22.154,7.6-50.919,8-77H251Zm118,0c0.726,38.812-4.848,84.119-16,113h2c4.893,3.347,11.751,2.935,18,5a249.472,249.472,0,0,1,29,12c3.1,1.5,13.046,5.8,14,5,8.624-6.3,13.237-17.735,19-27,17.5-28.138,33.293-63.765,34-108H369ZM231,369c-4.459,2.611-13-.326-19,1-11.327,2.506-25.334,2.419-36,5-6.849,1.657-16.875-.263-20,5l15,33c13.963,22.991,31.638,48.67,62,55V369h-2Zm20,0v99h2c6.5-4.675,15.576-5.524,22-10,21.217-14.783,46.241-51.3,53-80l-44-7C273.3,368.647,261.046,371.021,251,369ZM134,383c-3.011,1.991-7.161,1.6-11,3-10.754,3.923-33.668,9.876-41,17h1c15.485,21.349,67.22,50.149,98,57v-1c-14.867-10.378-38.906-55-44-76h-3Zm213,0c-4.4,20.629-19.894,46.559-31,62-3.79,5.269-9.324,9.376-13,15h3c3.355-2.5,7.657-2.215,12-4,11.4-4.685,24.486-9.587,35-16,12.416-7.573,24.453-16.33,36-25,4.607-3.459,7.979-8.657,13-12v-1C383.748,397.542,368.063,385.1,347,383Z"/>
</svg>
