<svg xmlns="http://www.w3.org/2000/svg" xmlns:xlink="http://www.w3.org/1999/xlink" width="512" height="492" viewBox="0 0 512 492">
  <defs>
    <style>
      .cls-1 {
        fill: #102539;
        fill-rule: evenodd;
      }
    </style>
  </defs>
  
  <path id="Color_Fill_1" data-name="Color Fill 1" class="cls-1" d="M292,54c6.715-46.072,73.821-68.523,115-39,8.067,5.784,15.79,15.405,21,24l6,15h61c9.794,7.485,17.237,7.978,17,26-4.224,5.379-5.345,12.08-12,15-12.839,5.633-48.561,2.165-66,2-13.6,30.523-45.042,66.265-94,50a94.6,94.6,0,0,1-23-12c-7.506-5.428-15.158-15.955-20-24q-2.5-7-5-14H20L10,94c-1.873-2.666-5.3-4.381-7-7-5.812-8.93-2-24.231,5-29,12.117-8.25,58.659-4,79-4H292Zm69-11c-2.687,1.616-6.614.7-10,2-8.908,3.414-17.408,13.28-20,23-5.771,21.643,17.248,45.1,39,39C405.73,96.979,401.689,46.911,361,43ZM145,171c30.024,0.213,52.688,13.009,65,31,2.064,3.016,9.437,22.128,11,23H496c1.955,1.546,4.8,1.51,7,3,3.4,2.3,5.163,7.056,8,10,2.906,39.4-35.057,29-72,29H221c-3.51,7.856-6.29,16.129-11,23-13.377,19.513-48.023,39.213-82,28a97.49,97.49,0,0,1-25-13c-6.967-5.068-14.817-15.259-19-23l-6-15H16c-1.955-1.546-4.8-1.51-7-3-3.4-2.3-5.163-7.056-8-10-0.606-7.2-1.608-14.6,2-20,9.632-14.419,51.41-9.406,75-9,8.823-21.69,20.881-38.887,42-48C126.227,174.313,139.568,174.35,145,171Zm-1,43c-12.294,8.176-21.155,6.84-26,24-5.532,19.592,14.316,45.462,36,40C192.473,268.308,190.151,212.922,144,214ZM292,438H17c-17.384-4.886-25.03-33.089-5-40,4.881-3.693,14.51-3,23-3H292c10.523-46.381,72.812-69.34,116-38,8.015,5.816,15.935,16.309,21,25,1.822,3.127,1.982,11.312,5,13h58c4.9,3.122,11.477,2.658,15,7,2.345,2.89,2.71,6,4,10,10.837,33.593-48.871,26.612-77,26-10,22.851-22,39.43-45,49C346.643,504.627,296.71,471.013,292,438Zm64-53c-10.528,7.084-19.123,7.716-24,21-8.978,24.456,16.449,48.7,39,42C406.174,437.544,402.24,383.83,356,385Z"/>
</svg>
